<?xml version="1.0" encoding="UTF-8" standalone="no"?>
<!-- Created with Inkscape (http://www.inkscape.org/) -->

<svg
   version="1.1"
   id="svg2"
   width="1333.3333"
   height="1066.6667"
   viewBox="0 0 1333.3333 1066.6667"
   sodipodi:docname="aviation_logo-22.eps"
   xmlns:inkscape="http://www.inkscape.org/namespaces/inkscape"
   xmlns:sodipodi="http://sodipodi.sourceforge.net/DTD/sodipodi-0.dtd"
   xmlns="http://www.w3.org/2000/svg"
   xmlns:svg="http://www.w3.org/2000/svg">
  <defs
     id="defs6">
    <clipPath
       clipPathUnits="userSpaceOnUse"
       id="clipPath18">
      <path
         d="m 5108.25,3462.21 c 0,0 -825.55,-67.63 -1285.92,248.53 -460.37,316.16 -980.27,808.69 -1346.86,735.26 0,0 839.68,-743.76 662.41,-942.7 -22.2,-24.91 -140.65,-65.24 -213.44,-87.24 -36.99,-11.18 -69,-34.66 -90.88,-66.52 l -15.28,-22.25 c -38.86,-56.58 -39.93,-130.95 -2.72,-188.63 l 0.06,-0.09 c 35.94,-55.72 100.97,-85.5 166.64,-76.29 393.59,55.22 1749.65,252.49 2125.99,399.93 z"
         id="path16" />
    </clipPath>
    <linearGradient
       x1="0"
       y1="0"
       x2="1"
       y2="0"
       gradientUnits="userSpaceOnUse"
       gradientTransform="matrix(2495.41,-639.973,-639.973,-2495.41,2000.86,3955.86)"
       spreadMethod="pad"
       id="linearGradient26">
      <stop
         style="stop-opacity:1;stop-color:#50a7e1"
         offset="0"
         id="stop20" />
      <stop
         style="stop-opacity:1;stop-color:#3a74be"
         offset="0.539326"
         id="stop22" />
      <stop
         style="stop-opacity:1;stop-color:#2d3f93"
         offset="1"
         id="stop24" />
    </linearGradient>
    <clipPath
       clipPathUnits="userSpaceOnUse"
       id="clipPath36">
      <path
         d="m 3276.3,4243.97 c 119.24,890.36 881.74,1577.07 1804.73,1577.07 741.59,0 1379.58,-443.33 1663.58,-1079.39 23.04,2 44.92,3.09 65.33,3.09 h 1.36 c 62.17,-0.13 122.65,-9.48 179.44,-22.77 -291.63,770.98 -1036.58,1319.25 -1909.71,1319.25 -998.81,0 -1829.94,-717.43 -2006.5,-1665.05 66.75,-40.15 134.16,-84.88 201.77,-132.2 z"
         id="path34" />
    </clipPath>
    <linearGradient
       x1="0"
       y1="0"
       x2="1"
       y2="0"
       gradientUnits="userSpaceOnUse"
       gradientTransform="matrix(3916.2,0,0,-3916.2,3074.53,5142.6)"
       spreadMethod="pad"
       id="linearGradient44">
      <stop
         style="stop-opacity:1;stop-color:#50a7e1"
         offset="0"
         id="stop38" />
      <stop
         style="stop-opacity:1;stop-color:#3a74be"
         offset="0.539326"
         id="stop40" />
      <stop
         style="stop-opacity:1;stop-color:#2d3f93"
         offset="1"
         id="stop42" />
    </linearGradient>
  </defs>
  <sodipodi:namedview
     id="namedview4"
     pagecolor="#ffffff"
     bordercolor="#000000"
     borderopacity="0.25"
     inkscape:showpageshadow="2"
     inkscape:pageopacity="0.0"
     inkscape:pagecheckerboard="0"
     inkscape:deskcolor="#d1d1d1" />
  <g
     id="g8"
     inkscape:groupmode="layer"
     inkscape:label="ink_ext_XXXXXX"
     transform="matrix(1.3333333,0,0,-1.3333333,0,1066.6667)">
    <g
       id="g10"
       transform="scale(0.1)">
      <g
         id="g12">
        <g
           id="g14"
           clip-path="url(#clipPath18)">
          <path
             d="m 5108.25,3462.21 c 0,0 -825.55,-67.63 -1285.92,248.53 -460.37,316.16 -980.27,808.69 -1346.86,735.26 0,0 839.68,-743.76 662.41,-942.7 -22.2,-24.91 -140.65,-65.24 -213.44,-87.24 -36.99,-11.18 -69,-34.66 -90.88,-66.52 l -15.28,-22.25 c -38.86,-56.58 -39.93,-130.95 -2.72,-188.63 l 0.06,-0.09 c 35.94,-55.72 100.97,-85.5 166.64,-76.29 393.59,55.22 1749.65,252.49 2125.99,399.93"
             style="fill:url(#linearGradient26);fill-opacity:1;fill-rule:nonzero;stroke:none"
             id="path28" />
        </g>
      </g>
      <g
         id="g30">
        <g
           id="g32"
           clip-path="url(#clipPath36)">
          <path
             d="m 3276.3,4243.97 c 119.24,890.36 881.74,1577.07 1804.73,1577.07 741.59,0 1379.58,-443.33 1663.58,-1079.39 23.04,2 44.92,3.09 65.33,3.09 h 1.36 c 62.17,-0.13 122.65,-9.48 179.44,-22.77 -291.63,770.98 -1036.58,1319.25 -1909.71,1319.25 -998.81,0 -1829.94,-717.43 -2006.5,-1665.05 66.75,-40.15 134.16,-84.88 201.77,-132.2"
             style="fill:url(#linearGradient44);fill-opacity:1;fill-rule:nonzero;stroke:none"
             id="path46" />
        </g>
      </g>
      <path
         d="m 6893.44,3822.45 c -89.27,-922.4 -866.59,-1643.49 -1812.41,-1643.49 -651.2,0 -1222.47,341.89 -1544.37,855.89 -82.22,-12.63 -161.12,-24.48 -235.07,-35.4 350,-621.13 1015.68,-1040.67 1779.44,-1040.67 1091.26,0 1982.48,856.33 2038.41,1933.67 -66.86,-22.29 -141.9,-45.51 -226,-70"
         style="fill:#2d3c92;fill-opacity:1;fill-rule:nonzero;stroke:none"
         id="path48" />
      <path
         d="m 7078,4251.8 -12.56,70.9 53.91,13.8 12.57,-70.89 z m -98.31,-25.17 -12.56,70.9 53.92,13.8 12.56,-70.89 z m -98.3,-25.17 -12.56,70.9 53.91,13.8 12.57,-70.89 z m -98.3,-25.17 -12.56,70.9 53.91,13.8 12.57,-70.89 z m -98.31,-25.17 -12.56,70.9 53.92,13.8 12.56,-70.89 z m -98.3,-25.17 -12.56,70.9 53.91,13.8 12.57,-70.89 z m -98.3,-25.17 -12.56,70.9 53.91,13.8 12.56,-70.89 z m -98.31,-25.17 -12.56,70.9 53.92,13.8 12.56,-70.89 z m -98.3,-25.17 -12.56,70.9 53.91,13.81 12.57,-70.9 z m -98.3,-25.17 -12.56,70.9 53.91,13.81 12.56,-70.9 z m -98.31,-25.17 -12.56,70.9 53.92,13.81 12.56,-70.9 z m -98.3,-25.16 -12.56,70.89 53.91,13.81 12.57,-70.9 z m 1514.75,331.5 c -35.4,60.09 -113.03,126.25 -214.55,183.63 l -419.06,-77.82 c -16.36,-3.04 -32.08,7.76 -35.12,24.12 v 0 c -3.85,20.72 4.69,41.89 22.01,53.89 94.67,65.64 219.32,93.03 219.32,93.03 -86.9,28.43 -179.75,53.56 -272.95,53.76 -318.81,0.68 -1053.91,-293.73 -1053.91,-293.73 l 115.53,-154.62 -181.04,131.99 c -322.3,228.98 -1396.4,1169.61 -1467.97,1156.32 -36.22,-6.73 299.44,-429.06 641.51,-850.67 l -166.25,-77.56 c -50.05,-23.35 -71.7,-82.86 -48.35,-132.92 v 0 c 23.35,-50.05 82.86,-71.7 132.92,-48.35 l 211.79,98.81 c 292.58,-359.19 555.07,-678.1 550,-686.17 0,0 -252.28,232.66 -395.1,396.79 -727.82,-202 -1254.47,-344.08 -1254.47,-344.08 228.25,-135.67 548.56,-209.38 789.54,-248.18 192.66,-31.02 388.85,-32.94 582.15,-6.12 0,0 744.57,125.35 892.47,161.88 987.27,243.9 1450.62,397.81 1351.53,566"
         style="fill:#2d3c92;fill-opacity:1;fill-rule:nonzero;stroke:none"
         id="path50" />
    </g>
  </g>
</svg>
